<?xml version="1.0"?>
<svg xmlns="http://www.w3.org/2000/svg" xmlns:xlink="http://www.w3.org/1999/xlink" version="1.1" id="Layer_1" x="0px" y="0px" viewBox="0 0 512 512" style="enable-background:new 0 0 512 512;" xml:space="preserve" width="512px" height="512px" class=""><g transform="matrix(-0.145197 3.55631e-17 3.55631e-17 0.145197 72.4099 1.61358)"><path style="fill:#8EC42F;" d="M491.499,209.741h-25.232l-33.643,54.669c0,0-126.16-21.027-264.936-29.437  c-67.162-4.071-130.366,28.979-130.366,69.914l0,0c0,12.484,10.12,22.604,22.604,22.604h410.546L491.499,209.741z" data-original="#8EC42F"/><path style="fill:#76B030;" d="M475.729,298.053H37.924c-0.39,2.25-0.601,4.528-0.601,6.834c0,0.532,0.043,1.053,0.08,1.577h436.825  L475.729,298.053z" data-original="#76B030"/><polygon style="fill:#FFD042;" points="335.902,415.803 314.875,415.803 226.563,306.464 302.259,306.464 " data-original="#FFD042"/><polygon style="fill:#FFC412;" points="226.563,306.464 314.875,415.803 335.902,415.803 247.589,306.464 " data-original="#FFC412"/><path style="fill:#ACF6FA;" d="M117.224,293.848v-33.643H65.586c-13.574,9.469-23.138,21.007-26.71,33.643H117.224z" data-original="#ACF6FA" class=""/><g>
	<polygon style="fill:#37C9D4" points="91.992,293.848 117.224,293.848 117.224,268.616  " data-original="#37C9D4" class=""/>
	<path style="fill:#37C9D4" d="M65.586,260.205c-13.574,9.469-23.138,21.007-26.71,33.643h13.166l33.643-33.643H65.586z" data-original="#37C9D4" class=""/>
	<polygon style="fill:#37C9D4" points="93.043,260.205 59.401,293.848 84.895,293.848 117.224,261.52 117.224,260.205  " data-original="#37C9D4" class=""/>
</g><path style="fill:#EDECEB" d="M390.473,63.453c-1.716-30.977-27.371-55.568-58.777-55.568c-27.579,0-50.721,18.966-57.115,44.565  c-6.568-4.244-14.386-6.717-22.787-6.717c-23.225,0-42.053,18.828-42.053,42.053c0,6.578,1.513,11.277,4.205,16.821h239.705  C440.243,82.358,417.297,67.262,390.473,63.453z" data-original="#EDECEB" class=""/><path style="fill:#DBD9D7;" d="M226.563,87.786c-2.692-5.545-4.205-10.243-4.205-16.821c0-5.666,1.128-11.066,3.159-16  c-9.613,7.707-15.775,19.542-15.775,32.822c0,6.578,1.513,11.277,4.205,16.821h239.705c-3.731-6.191-8.204-11.828-13.29-16.821  H226.563z" data-original="#DBD9D7" class=""/><path style="fill:#EDECEB" d="M201.233,462.961c-1.716-30.977-27.372-55.568-58.777-55.568c-27.579,0-50.721,18.966-57.115,44.565  c-6.568-4.244-14.386-6.717-22.787-6.717c-23.225,0-42.053,18.828-42.053,42.053c0,6.578,1.513,11.277,4.205,16.821h239.705  C251.003,481.866,228.057,466.77,201.233,462.961z" data-original="#EDECEB" class=""/><path style="fill:#DBD9D7;" d="M37.321,487.294c-2.692-5.545-4.205-10.243-4.205-16.821c0-5.666,1.127-11.065,3.158-15.998  c-9.612,7.707-15.773,19.541-15.773,32.82c0,6.578,1.513,11.277,4.205,16.821h239.705c-3.731-6.191-8.204-11.828-13.29-16.821  H37.321z" data-original="#DBD9D7" class=""/><path d="M213.947,112.493h239.705c6.016,0,9.865-6.792,6.754-11.956c-13.667-22.676-36.288-38.407-62.708-43.83  C392.832,24.44,364.975,0,331.696,0c-27.401,0-51.561,16.557-61.723,41.272c-5.758-2.255-11.912-3.424-18.179-3.424  c-27.535,0-49.938,22.403-49.938,49.938c0,8.764,2.401,14.919,4.997,20.266C208.173,110.768,210.927,112.493,213.947,112.493z   M251.795,53.618c6.586,0,12.985,1.886,18.507,5.454c4.471,2.888,10.643,0.439,11.931-4.711  c5.675-22.722,26.015-38.591,49.464-38.591c27.05,0,49.41,21.136,50.905,48.12c0.207,3.756,3.04,6.842,6.765,7.371  c19.175,2.723,36.272,11.781,48.651,25.462H219.132c-0.971-2.727-1.506-5.471-1.506-8.936  C217.626,68.947,232.954,53.618,251.795,53.618z" data-original="#000000" class="active-path" style="fill:#000000"/><path d="M208.458,456.214c-4.866-32.266-32.723-56.707-66.002-56.707c-27.401,0-51.561,16.557-61.723,41.272  c-5.758-2.255-11.912-3.424-18.179-3.424c-27.536,0-49.938,22.403-49.938,49.938c0,8.764,2.401,14.92,4.997,20.266  c1.319,2.716,4.074,4.441,7.093,4.441h239.705c6.016,0,9.865-6.792,6.754-11.956C257.498,477.368,234.878,461.637,208.458,456.214z   M29.892,496.23c-0.971-2.727-1.506-5.471-1.506-8.936c0-18.84,15.327-34.168,34.168-34.168c6.586,0,12.985,1.886,18.507,5.454  c4.472,2.887,10.643,0.441,11.931-4.711c5.675-22.723,26.015-38.591,49.464-38.591c27.05,0,49.41,21.136,50.905,48.12  c0.207,3.756,3.04,6.842,6.765,7.371c19.175,2.723,36.272,11.781,48.65,25.462L29.892,496.23L29.892,496.23z" data-original="#000000" class="active-path" style="fill:#000000"/><path d="M497.545,204.68c-1.499-1.789-3.712-2.824-6.046-2.824h-25.232c-2.738,0-5.28,1.42-6.716,3.752l-30.877,50.176  c-6.16-0.981-17.506-2.746-32.775-4.941c-4.305-0.614-8.306,2.372-8.927,6.682c-0.62,4.31,2.373,8.307,6.682,8.927  c23.451,3.372,37.534,5.713,37.674,5.736c3.159,0.528,6.33-0.914,8.011-3.645l31.334-50.917h11.408l-18.21,101.979H314.552  l-4.757-15.461c-1.018-3.309-4.074-5.566-7.536-5.566h-75.696c-6.485,0-10.223,7.777-6.135,12.839l6.613,8.188H59.926  c-8.116,0-14.719-6.602-14.719-14.719c0-1.07,0.073-2.117,0.177-3.154h71.84c4.356,0,7.885-3.53,7.885-7.885v-33.643  c0-4.355-3.529-7.885-7.885-7.885H98.31c20.546-7.416,44.731-10.941,68.9-9.477c78.335,4.748,152.697,13.554,201.285,20.106  c4.31,0.578,8.286-2.444,8.868-6.76c0.582-4.316-2.444-8.287-6.761-8.868c-48.85-6.588-123.625-15.442-202.438-20.218  c-42.73-2.592-85.921,9.381-112.646,30.786c-10.958,8.702-20.591,20.355-24.289,34.078c-1.136,4.22-1.793,8.543-1.793,12.92  c0,16.812,13.678,30.489,30.489,30.489h179.253c0.194,0,0.385-0.015,0.576-0.029l68.985,85.41c1.497,1.854,3.752,2.931,6.135,2.931  h21.027c5.216,0,9.072-5.215,7.536-10.204l-24.034-78.108h151.068c3.821,0,7.09-2.738,7.762-6.499l21.027-117.749  C499.671,208.83,499.043,206.468,497.545,204.68z M109.339,285.963h-58.36c4.371-7.083,10.472-12.959,17.14-17.873h41.22V285.963z   M318.642,407.918l-75.575-93.569h53.369l28.791,93.569H318.642z" data-original="#000000" class="active-path" style="fill:#000000"/><path d="M197.125,273.347c-4.356,0-7.885,3.53-7.885,7.885c0,4.355,3.529,7.885,7.885,7.885h12.616c4.356,0,7.885-3.53,7.885-7.885  c0-4.355-3.529-7.885-7.885-7.885H197.125z" data-original="#000000" class="active-path" style="fill:#000000"/><path d="M230.768,273.347c-4.356,0-7.885,3.53-7.885,7.885c0,4.355,3.529,7.885,7.885,7.885h12.616c4.356,0,7.885-3.53,7.885-7.885  c0-4.355-3.529-7.885-7.885-7.885H230.768z" data-original="#000000" class="active-path" style="fill:#000000"/><path d="M264.411,273.347c-4.356,0-7.885,3.53-7.885,7.885c0,4.355,3.529,7.885,7.885,7.885h12.616c4.356,0,7.885-3.53,7.885-7.885  c0-4.355-3.529-7.885-7.885-7.885H264.411z" data-original="#000000" class="active-path" style="fill:#000000"/><path d="M298.053,273.347c-4.356,0-7.885,3.53-7.885,7.885c0,4.355,3.529,7.885,7.885,7.885h12.616c4.356,0,7.885-3.53,7.885-7.885  c0-4.355-3.529-7.885-7.885-7.885H298.053z" data-original="#000000" class="active-path" style="fill:#000000"/><path d="M163.483,273.347c-4.356,0-7.885,3.53-7.885,7.885c0,4.355,3.529,7.885,7.885,7.885h12.616c4.356,0,7.885-3.53,7.885-7.885  c0-4.355-3.529-7.885-7.885-7.885H163.483z" data-original="#000000" class="active-path" style="fill:#000000"/></g> </svg>
