<?xml version="1.0"?>
<svg xmlns="http://www.w3.org/2000/svg" xmlns:xlink="http://www.w3.org/1999/xlink" version="1.1" id="Layer_1" x="0px" y="0px" viewBox="0 0 512 512" style="enable-background:new 0 0 512 512;" xml:space="preserve" width="512px" height="512px" class=""><g transform="matrix(-0.145197 0 0 0.145197 71.9265 1.65441)"><g>
	<g>
		<path d="M460.406,100.537c-13.667-22.676-36.288-38.407-62.708-43.83C392.832,24.44,364.975,0,331.696,0    c-27.401,0-51.561,16.557-61.723,41.272c-5.758-2.255-11.912-3.424-18.179-3.424c-27.536,0-49.938,22.403-49.938,49.938    c0,8.764,2.401,14.919,4.997,20.266c1.319,2.716,4.074,4.441,7.093,4.441h239.705    C459.668,112.493,463.517,105.701,460.406,100.537z M219.132,96.723c-0.971-2.727-1.506-5.471-1.506-8.936    c0-18.84,15.327-34.168,34.168-34.168c6.586,0,12.985,1.886,18.507,5.454c4.471,2.888,10.643,0.439,11.931-4.711    c5.675-22.723,26.015-38.591,49.464-38.591c27.05,0,49.41,21.136,50.905,48.12c0.207,3.756,3.04,6.842,6.765,7.371    c19.175,2.723,36.272,11.781,48.651,25.462H219.132z" data-original="#000000" class="active-path" fill="#000000"/>
	</g>
</g><g>
	<g>
		<path d="M271.166,500.044c-13.667-22.676-36.288-38.407-62.708-43.83c-4.866-32.267-32.723-56.707-66.002-56.707    c-27.401,0-51.561,16.557-61.723,41.272c-5.758-2.255-11.912-3.424-18.179-3.424c-27.536,0-49.938,22.403-49.938,49.938    c0,8.764,2.401,14.919,4.997,20.266c1.319,2.716,4.074,4.441,7.093,4.441h239.705C270.428,512,274.277,505.208,271.166,500.044z     M29.892,496.23c-0.971-2.727-1.505-5.471-1.505-8.936c0-18.84,15.327-34.168,34.168-34.168c6.586,0,12.985,1.886,18.507,5.454    c4.472,2.887,10.643,0.44,11.931-4.711c5.675-22.723,26.015-38.591,49.464-38.591c27.05,0,49.41,21.136,50.905,48.12    c0.207,3.756,3.04,6.842,6.765,7.371c19.175,2.723,36.272,11.781,48.651,25.462H29.892z" data-original="#000000" class="active-path" fill="#000000"/>
	</g>
</g><g>
	<g>
		<path d="M497.545,204.68c-1.499-1.789-3.712-2.824-6.046-2.824h-25.232c-2.738,0-5.28,1.42-6.716,3.752l-30.877,50.176    c-6.16-0.981-17.506-2.746-32.775-4.941c-4.305-0.614-8.306,2.372-8.927,6.682c-0.62,4.31,2.373,8.307,6.682,8.927    c23.451,3.372,37.534,5.713,37.674,5.736c3.159,0.528,6.33-0.914,8.011-3.645l31.334-50.917h11.408l-18.21,101.979H314.552    l-4.757-15.461c-1.018-3.309-4.074-5.566-7.536-5.566h-75.696c-6.485,0-10.223,7.777-6.135,12.839l6.613,8.188H59.926    c-8.116,0-14.719-6.602-14.719-14.719c0-1.07,0.073-2.117,0.177-3.154h71.84c4.356,0,7.885-3.53,7.885-7.885v-33.643    c0-4.355-3.529-7.885-7.885-7.885H98.31c20.546-7.416,44.731-10.941,68.9-9.477c78.335,4.748,152.697,13.554,201.285,20.106    c4.31,0.578,8.286-2.444,8.868-6.76c0.582-4.316-2.444-8.287-6.761-8.868c-48.85-6.588-123.625-15.442-202.438-20.218    c-42.73-2.592-85.921,9.381-112.646,30.786c-10.958,8.702-20.591,20.355-24.289,34.078c-1.136,4.22-1.792,8.543-1.792,12.92    c0,16.812,13.678,30.489,30.489,30.489h179.253c0.195,0,0.385-0.015,0.576-0.029l68.985,85.41    c1.497,1.853,3.752,2.931,6.135,2.931h21.027c5.216,0,9.072-5.215,7.536-10.204l-24.034-78.108h151.068    c3.821,0,7.09-2.738,7.762-6.499l21.027-117.749C499.671,208.83,499.043,206.468,497.545,204.68z M68.119,268.09h41.22v17.873    h-58.36C55.351,278.88,61.452,273.004,68.119,268.09z M325.226,407.918h-6.584l-75.575-93.569h53.369L325.226,407.918z" data-original="#000000" class="active-path" fill="#000000"/>
	</g>
</g><g>
	<g>
		<path d="M209.741,273.347h-12.616c-4.356,0-7.885,3.53-7.885,7.885s3.529,7.885,7.885,7.885h12.616    c4.356,0,7.885-3.53,7.885-7.885S214.097,273.347,209.741,273.347z" data-original="#000000" class="active-path" fill="#000000"/>
	</g>
</g><g>
	<g>
		<path d="M243.384,273.347h-12.616c-4.356,0-7.885,3.53-7.885,7.885s3.529,7.885,7.885,7.885h12.616    c4.356,0,7.885-3.53,7.885-7.885S247.74,273.347,243.384,273.347z" data-original="#000000" class="active-path" fill="#000000"/>
	</g>
</g><g>
	<g>
		<path d="M277.027,273.347h-12.616c-4.356,0-7.885,3.53-7.885,7.885s3.529,7.885,7.885,7.885h12.616    c4.356,0,7.885-3.53,7.885-7.885S281.382,273.347,277.027,273.347z" data-original="#000000" class="active-path" fill="#000000"/>
	</g>
</g><g>
	<g>
		<path d="M310.67,273.347h-12.616c-4.356,0-7.885,3.53-7.885,7.885s3.529,7.885,7.885,7.885h12.616c4.356,0,7.885-3.53,7.885-7.885    S315.025,273.347,310.67,273.347z" data-original="#000000" class="active-path" fill="#000000"/>
	</g>
</g><g>
	<g>
		<path d="M176.099,273.347h-12.616c-4.356,0-7.885,3.53-7.885,7.885s3.529,7.885,7.885,7.885h12.616    c4.356,0,7.885-3.53,7.885-7.885S180.454,273.347,176.099,273.347z" data-original="#000000" class="active-path" fill="#000000"/>
	</g>
</g></g> </svg>
